HIERARCHY
ROOT pelvis
{
  OFFSET 0 100 0
  CHANNELS 6 Xposition Yposition Zposition Zrotation Xrotation Yrotation
  JOINT pelvis_right_femur
  {
    OFFSET -10.78128 -3.44521 -0.5502486
    CHANNELS 3 Zrotation Xrotation Yrotation
    JOINT right_femur_tibia
    {
      OFFSET -0.8047443 -44.0398 -0.1307829
      CHANNELS 3 Zrotation Xrotation Yrotation
      JOINT right_tibia_foot
      {
        OFFSET 3.006224 -47.83518 -5
        CHANNELS 3 Zrotation Xrotation Yrotation
        End Site
        {
          OFFSET 0 -5 15
        }
      }
    }
  }
  JOINT pelvis_left_femur
  {
    OFFSET 10.78128 -3.44521 -0.5502486
    CHANNELS 3 Zrotation Xrotation Yrotation
    JOINT left_femur_tibia
    {
      OFFSET 0.8047443 -44.0398 -0.1307829
      CHANNELS 3 Zrotation Xrotation Yrotation
      JOINT left_tibia_foot
      {
        OFFSET -4.370144 -48.10324 -4.275266
        CHANNELS 3 Zrotation Xrotation Yrotation
        End Site
        {
          OFFSET 0 -5 15
        }
      }
    }
  }
  JOINT pelvis_spine1
  {
    OFFSET 0 6.468898 -3.129235
    CHANNELS 3 Zrotation Xrotation Yrotation
    JOINT spine1
    {
      OFFSET 0 23.15396 4.99043
      CHANNELS 3 Zrotation Xrotation Yrotation
      JOINT spine2
      {
        OFFSET 0 20.79997 -5.064912
        CHANNELS 3 Zrotation Xrotation Yrotation
        JOINT neck
        {
          OFFSET 0 14.38658 9.616178
          CHANNELS 3 Zrotation Xrotation Yrotation
          End Site
          {
            OFFSET 0 20 0
          }
        }
      }
      JOINT right_manubrium
      {
        OFFSET -5.722621 16.35077 3.967754
        CHANNELS 3 Zrotation Xrotation Yrotation
        JOINT right_clavicle
        {
          OFFSET -13.16364 1.694482 -4.693211
          CHANNELS 3 Zrotation Xrotation Yrotation
          JOINT right_humerus
          {
            OFFSET -28.5034 -0.3100689 -2.792744
            CHANNELS 3 Zrotation Xrotation Yrotation
            JOINT right_radius
            {
              OFFSET -25.15693 0.02248979 -1.271978
              CHANNELS 3 Zrotation Xrotation Yrotation
              End Site
              {
                OFFSET -15 0 0
              }
            }
          }
        }
      }
      JOINT left_manubrium
      {
        OFFSET 5.722621 16.35077 3.967754
        CHANNELS 3 Zrotation Xrotation Yrotation
        JOINT left_clavicle
        {
          OFFSET 13.16364 1.694482 -4.693211
          CHANNELS 3 Zrotation Xrotation Yrotation
          JOINT left_humerus
          {
            OFFSET 29.39168 -1.063119 -2.237045
            CHANNELS 3 Zrotation Xrotation Yrotation
            JOINT left_radius
            {
              OFFSET 24.59957 -0.9528479 0.9047498
              CHANNELS 3 Zrotation Xrotation Yrotation
              End Site
              {
                OFFSET 15 -0 -0
              }
            }
          }
        }
      }
    }
  }
}
MOTION
Frames: 11
Frame Time: 0.0416666666667
692.1888 104.0699 2750.35 1.982596 -6.164625 21.57473 1.429187 -18.57327 -0.9723779 -0 35.50346 -0 -10.3802 6.249505 -1.242002 -4.380132 9.560974 -11.42033 -0 9.618366 -0 -0.3067433 -17.58431 16.86593 -1.845761 -0.2828342 6.569323 0.1753228 10.48245 -6.071176 0.7097052 21.59471 7.231031 3.991003 -21.15845 6.882887 4.74793 -19.09011 11.73092 84.95907 38.26542 -14.93654 -0 0 13.88832 -23.28669 14.71056 12.98073 4.596849 -20.53623 -2.554528 -91.03459 26.45646 23.0379 0 0 -19.35709 0.7702389 10.12965 15.42418
693.9556 103.3649 2754.091 0.6503852 -3.515015 21.65954 2.534879 -25.39698 0.3099735 -0 26.92566 -0 -9.371297 0.7132357 -1.987585 -4.556703 12.01509 -13.37206 -0 7.675864 -0 -0.3007688 -20.31282 16.98858 -1.699676 -0.2320227 6.352993 0.2466322 10.45957 -6.322398 0.6867437 21.44431 7.409985 4.051884 -21.15356 6.967212 4.743269 -18.859 11.73967 85.56036 38.219 -15.79184 -0 0 13.49908 -23.57979 15.23531 12.93718 4.830442 -20.88018 -2.530008 -90.55198 26.32654 22.22076 0 0 -20.10725 0.7239142 10.15834 15.54343
695.532 102.3488 2757.438 -0.5834638 -0.6774432 21.72649 4.069652 -30.15507 2.447997 -0 20.82604 -0 -7.873265 -3.02233 -2.287983 -5.035305 12.95549 -15.57553 -0 6.904792 -0 0.6879581 -22.56856 18.20851 -1.60544 -0.1905462 6.208744 0.2852771 10.43834 -6.48434 0.6699002 21.34541 7.552777 4.086924 -21.10835 7.04047 4.728153 -18.70353 11.74876 85.93876 38.18112 -16.32128 -0 0 13.25961 -23.94731 15.6953 12.98369 4.986576 -21.10507 -2.505441 -90.18527 26.18713 21.62531 0 0 -20.60582 0.6639401 10.16421 15.64446
697.1169 101.1663 2760.827 -1.19613 1.046119 21.92225 5.034069 -32.95414 3.296178 -0 16.18141 -0 -6.800164 -3.386295 -1.948741 -5.508432 13.52021 -16.1317 -0 7.338863 -0 2.318399 -23.39927 18.91731 -1.61036 -0.1674552 6.218173 0.2591252 10.45649 -6.472488 0.6707008 21.33203 7.60296 4.083201 -21.00224 7.069568 4.700538 -18.69682 11.76511 85.90667 38.09727 -16.25609 -0 0 13.30057 -24.39666 15.94866 13.18113 4.985706 -21.09641 -2.52269 -90.04902 26.01243 21.4857 0 0 -20.5997 0.6125966 10.06259 15.67807
698.8802 99.89741 2764.74 -1.25942 1.619935 22.27584 5.094147 -34.46174 2.330691 -0 11.61799 -0 -6.485244 -1.42469 -1.352594 -5.722369 14.6023 -14.86544 -0 8.932382 -0 3.302122 -22.91712 18.05446 -1.654149 -0.1527221 6.30803 0.1934911 10.46822 -6.364298 0.6846523 21.37383 7.604217 4.065821 -20.88246 7.07916 4.674231 -18.76887 11.77363 85.65162 38.05968 -15.87208 -0 0 13.48993 -24.80401 16.07568 13.40795 4.905818 -20.96075 -2.536668 -90.09327 25.9174 21.64785 0 0 -20.32636 0.5304935 9.981939 15.74296
700.8683 98.73902 2769.319 -1.348655 1.857058 22.78286 5.242813 -35.11073 1.417825 -0 8.398277 -0 -6.452803 0.7933747 -0.9290787 -5.698245 15.81689 -13.35297 -0 11.74302 -0 3.34895 -21.73666 16.57301 -1.681696 -0.1442015 6.373408 0.1464531 10.46353 -6.28325 0.6959301 21.41103 7.599045 4.055029 -20.81346 7.084415 4.660665 -18.82375 11.77354 85.46087 38.07116 -15.58848 -0 0 13.62574 -25.02114 16.13378 13.53503 4.847463 -20.85914 -2.53359 -90.16513 25.90318 21.80871 0 0 -20.12185 0.4638685 9.965022 15.80942
703.0801 97.89826 2774.547 -1.729847 2.043936 23.39837 5.95373 -34.99829 1.355248 -0 7.220475 -0 -6.583817 2.451232 -0.7314958 -5.428892 16.78228 -12.21319 -0 15.99036 -0 2.524891 -19.89266 14.92194 -1.715036 -0.1540841 6.420727 0.1339388 10.48869 -6.235647 0.698458 21.42774 7.561428 4.045152 -20.81291 7.059761 4.657281 -18.8724 11.78041 85.34749 38.01872 -15.42745 -0 0 13.70774 -24.99544 16.0138 13.56708 4.800373 -20.79236 -2.558921 -90.23216 25.87092 21.94827 0 0 -19.97222 0.4977351 9.896119 15.74517
705.4983 97.54583 2780.339 -2.425323 2.097293 24.00631 7.195043 -33.69963 2.201772 -0 8.265231 -0 -6.881764 3.093779 -0.7973853 -4.845999 17.04809 -11.45786 -0 22.21482 -0 0.5858337 -17.10016 13.05227 -1.791153 -0.1895406 6.517191 0.1269665 10.55069 -6.145221 0.6996563 21.46286 7.450168 4.021423 -20.8631 6.984652 4.660192 -18.9815 11.79419 85.13013 37.90531 -15.12673 -0 0 13.86101 -24.7256 15.61485 13.55057 4.699359 -20.65946 -2.617499 -90.41433 25.83419 22.28575 0 0 -19.658 0.62884 9.753768 15.53598
708.0571 97.79637 2786.415 -3.404349 1.987379 24.41208 8.69978 -30.67831 3.853952 -0 11.50681 -0 -7.410305 1.769752 -1.055065 -3.965395 15.59141 -11.22862 -0 30.52049 -0 -2.450683 -13.26668 11.14409 -1.914056 -0.2468781 6.689425 0.09929235 10.60327 -5.965101 0.7075134 21.55989 7.266528 3.973308 -20.93787 6.876564 4.669465 -19.17797 11.7978 84.69257 37.8596 -14.51381 -0 0 14.15335 -24.24729 14.98997 13.50202 4.517534 -20.40542 -2.659771 -90.81014 25.89705 22.95647 0 0 -19.07109 0.7824252 9.656596 15.28478
710.6317 98.57079 2792.307 -4.265622 1.708479 24.40744 9.637209 -25.76522 5.312773 -0 15.17968 -0 -8.305815 -1.905517 -1.144929 -3.105834 11.32023 -11.31677 -0 39.91349 -0 -5.795876 -8.989392 9.415465 -2.062988 -0.3103344 6.90545 0.03942041 10.58739 -5.706403 0.7233748 21.73023 7.071066 3.905227 -20.99426 6.785988 4.679332 -19.42931 11.77654 84.04792 37.99804 -13.60093 -0 0 14.55935 -23.75395 14.35835 13.46999 4.279176 -20.05055 -2.634835 -91.38498 26.12563 23.87856 0 0 -18.29028 0.8418555 9.720035 15.1525
713.1239 99.64364 2797.778 -4.080805 1.09332 23.9574 9.233001 -19.8327 5.273331 -0 15.99322 -0 -9.214145 -5.688127 -0.7941392 -2.76062 5.111452 -10.87477 -0 49.10196 -0 -7.70886 -5.580433 8.16103 -2.195809 -0.3554895 7.093908 -0.04227089 10.48193 -5.439415 0.743489 21.93339 6.939001 3.845324 -21.00104 6.749185 4.684518 -19.65245 11.73183 83.3606 38.31792 -12.6231 -0 0 14.95263 -23.45341 13.9459 13.49004 4.048613 -19.68568 -2.539426 -91.98118 26.50196 24.78669 0 0 -17.55195 0.7175786 9.951238 15.26783
